<svg xmlns="http://www.w3.org/2000/svg" viewBox="0 0 599.47 126.68"><defs><style>.cls-1{fill:#194ea0;}.cls-2{fill:#ed1c27;}.cls-3{fill:#194e9e;}</style></defs><title>FISCO_BCOS_QM_Logo</title><g id="图层_2" data-name="图层 2"><g id="图层_1-2" data-name="图层 1"><path class="cls-1" d="M103.27,22.83C87.34,13.07,66.58,2.18,66.58,2.18c-6.22-3.47-15.47-2.34-19.52.18C36.05,9.19,7.83,27.2,7.83,27.2A16.79,16.79,0,0,0,.36,40.63S0,86.51,0,86.86c0,4.77,3.9,13.23,10.13,16.69,0,0,20.18,11.92,36.87,20.32,0,0,10.09,5.89,18.5.6l40.2-25.35a16.9,16.9,0,0,0,7.48-13.42l.34-47.46C113.59,28.31,103.27,22.83,103.27,22.83Zm-2.52,57.89a13.2,13.2,0,0,1-5.83,10.47L63.58,111c-6.56,4.13-14.43-.46-14.43-.47-13-6.54-28.74-15.84-28.74-15.84-4.86-2.7-7.9-9.29-7.9-13,0-.27.28-36,.28-36a13.06,13.06,0,0,1,5.83-10.47s22-14,30.58-19.37c3.16-2,10.37-2.84,15.22-.14,0,0,16.19,8.49,28.6,16.1,0,0,8,4.27,8,12Z"/><path class="cls-2" d="M52.09,82.74,41.91,76.86a8.68,8.68,0,0,1-4.36-7.54V59.59l-15.45-8c-.05,6.72-.2,25.93-.2,26.11A13.6,13.6,0,0,0,28.12,88s12.4,7.32,22.65,12.48a11.37,11.37,0,0,0,1.32.63Z"/><path class="cls-2" d="M40.57,50.62a8.81,8.81,0,0,1,1.34-1l10.5-6.07a8.74,8.74,0,0,1,8.71,0l10.51,6.07a8.66,8.66,0,0,1,2.24,1.89L90.26,43a14.44,14.44,0,0,0-4.92-4.69c-9.79-6-22.54-12.68-22.54-12.68a13.63,13.63,0,0,0-12,.11C44.05,30,26.71,41.06,26.71,41.06a9.33,9.33,0,0,0-1.77,1.49Z"/><path class="cls-2" d="M76,61v8.35a8.71,8.71,0,0,1-4.35,7.54L61.44,82.74v18.45c.23-.12.47-.24.69-.38l24.7-15.57A10.37,10.37,0,0,0,91.42,77l.18-24.1Z"/><path class="cls-1" d="M289.63,40.9A22.16,22.16,0,0,0,267.75,62c0,8.81-5.6,13.58-12,13.58H249a5.16,5.16,0,0,1-5.12-5.2V63.45a11.9,11.9,0,0,1,20.51-8.54,22.54,22.54,0,0,1,5-9.21A21.23,21.23,0,0,0,255.84,41a22.2,22.2,0,0,0-22,22.4v7.31a26,26,0,0,1-5.26,15.12h27.14a22.51,22.51,0,0,0,17-8.08c3.39-3.78,4.94-9,5-14.5h0A11.89,11.89,0,1,1,289.61,75.4a11.69,11.69,0,0,1-8.47-3.63,25.3,25.3,0,0,1-5.22,9.15,21.53,21.53,0,0,0,13.69,4.91,22.21,22.21,0,0,0,21.95-22.45C311.58,51.09,301.71,40.9,289.63,40.9Z"/><path class="cls-1" d="M210.56,85.8c2.86,0,9.8-.16,13.37-3.64,2.86-2.79,4.8-8.5,4.9-12.18.24-8.76-4.62-10.16-17.13-10-2.15,0-6.31-.85-6.31-5s5.14-5.26,7.33-5.26h18.47a26.2,26.2,0,0,1,6.16-8.91H211.4c-4.47.15-8.35,1.28-11.07,3.65s-4.26,5.93-4.26,11.07c0,4.38.9,7,2.48,8.81s3.79,3,7.95,3.41c3.82.41,8.4.21,9.77.5,2,.43,3.41,1.61,2.74,4.87-.4,2.56-3.41,4-9.06,4H192.12a25.2,25.2,0,0,1-4.36,8.59ZM194.91,40.85H183.46L176.41,75.4a25,25,0,0,1-4.8,10.4c13.57.27,15.58-7.09,17-13.07ZM144.24,39h5.61l-1.14,5.72H143.1Zm6.43,1.3H155l-.87,4.42H149.8Zm-4.16,5.07h3.9l-.78,4h-3.9ZM137,85.8c12.13,0,14.31-5.63,15.9-9.5a32.23,32.23,0,0,0,1.51-5.89c.62-4,3-4,4.33-4h10.53a6,6,0,0,0,3.9-1.55,6.6,6.6,0,0,0,2.27-3.69l.71-3.52H150.48c-6,0-6.71,7-7.35,11.32S141.55,80.28,137,85.8Zm35.27-36.19c3.31,0,5.73-3,6.2-5.26.32-1.5.6-2.93.71-3.5H155.62l-1,4.9h-3.48l-.76,3.86Z"/><path class="cls-1" d="M422.64,40.9A22.16,22.16,0,0,0,400.76,62c0,8.81-5.6,13.58-12,13.58H382a5.16,5.16,0,0,1-5.13-5.21V63.45a11.91,11.91,0,0,1,20.51-8.55,22.51,22.51,0,0,1,5-9.2A21.25,21.25,0,0,0,388.85,41a22.2,22.2,0,0,0-22,22.4v.08c0,5.77-.06,7.23-.06,7.23a26,26,0,0,1-5.26,15.12h27.15a22.51,22.51,0,0,0,17-8.08c3.38-3.78,4.93-9,5-14.5h0a11.89,11.89,0,1,1,11.89,12.16,11.69,11.69,0,0,1-8.47-3.63,24.91,24.91,0,0,1-5.23,9.14,21.54,21.54,0,0,0,13.7,4.92,22.21,22.21,0,0,0,21.95-22.45C444.59,51.09,434.72,40.9,422.64,40.9Z"/><path class="cls-1" d="M463.79,40.85c-4.47.15-8.35,1.28-11.07,3.64s-4.26,5.94-4.26,11.08c0,4.38.9,7,2.49,8.81s3.78,3,7.95,3.4c3.81.42,8.39.22,9.76.5,2,.44,3.41,1.62,2.75,4.88-.41,2.56-3.42,4-9.06,4H444.51a25.27,25.27,0,0,1-4.35,8.59H463c2.86,0,9.81-.16,13.38-3.64,2.86-2.79,4.79-8.5,4.89-12.19.24-8.76-4.61-10.16-17.12-10-2.16,0-6.32-.85-6.32-5s5.14-5.26,7.33-5.26H482.3c3.36,0,5.83-3.09,6.31-5.36.32-1.52.61-3,.72-3.56Z"/><path class="cls-1" d="M351.62,42.87H330.25l-9.07,44.7h0v.13s21.17,0,22.62-.13c6.86,0,10.28-1.77,11.83-3.42,6.79-6.7,4.63-18.25,3-19.06C363.06,61.41,369.32,42.87,351.62,42.87Zm-2,8.28c2,.4,3.42,1.58,2.76,4.87-.39,2.5-3.29,4.86-5.39,5.13-1.18.13-9.2.26-9.2.26L339.85,51a71.83,71.83,0,0,1,9.73.15Zm1.08,22.72c-.13,4-3.77,5.27-8.43,5.27h-8.43l2.37-9.2h10.21c2,.06,4.35.76,4.24,3.93Z"/><path class="cls-3" d="M543.51,86.08c7.81,0,11.8-3.68,12.44-7.31l3.37-19.33,6.21,15.19h10.12L586.16,60.2S583.44,75.75,582.87,79s-.84,4.84-2.25,7c8,0,11.41-2.36,12.43-7.31L599.47,42h-7.69a4.87,4.87,0,0,0-3.91,2l-16,21.48-9.55-23.43h-5.91a5,5,0,0,0-4.93,4.15s-4.94,28.88-5.58,32C545.23,81.64,545.08,83.51,543.51,86.08Z"/><path class="cls-3" d="M540.43,63.13c2.12-12,1.21-22.6-16.7-22.6s-22.14,7.27-25.37,22.6C496.16,75.58,497.11,86,515,86c7.93,0,13.45-2.07,17.26-5.47l3.68,2.91a6.65,6.65,0,0,1,2.75,3.21,12.9,12.9,0,0,0,2.8-9.05,5.2,5.2,0,0,0-2.44-3.76l-1.35-1.06a43,43,0,0,0,2.73-9.63m-31.55,0c2-10.05,4-14.52,13.32-14.52s9.26,6.09,7.7,14.52c-.17,1-.37,2-.59,3L522.92,61h0l-1.44,7.93a4.67,4.67,0,0,0,1.71,4.49l2,1.63c-2,2.08-3.54,3.19-8.92,3.19C507.6,78.23,507.2,72.64,508.88,63.13Z"/></g></g></svg>